# xmcd
#
# Track frame offsets: 
#        150
#        13043
#        35402
#        55110
#        77548
#        112918
#        137214
#        168070
#        191341
#        215864
#        234886
#        262460
#        278521
#        299244
#
# Disc length: 4262 seconds
#
# Revision: 1
# Processed by: cddbd v1.5.2PL0 Copyright (c) Steve Scherf et al.
# Submitted via: ExactAudioCopy v0.99pb5
#
DISCID=c810a40e
DTITLE=Various Artist - Earotic - Sweet Lounge Music 1
DYEAR=2010
DGENRE=Easy Listening
TTITLE0=Nobody Beats The Beats - Piece Of Mind
TTITLE1=George Benson - The Ghetto [Album Version]
TTITLE2=Nylon - Im 80. Stockwerk
TTITLE3=Jeremiah - Pizzicato Polka [Jeremiah Remix]
TTITLE4=Space Jazz Dub Men - Don't Mean A Thing [Incognito Remix]
TTITLE5=James Brown - Sunny [Funkmaster J.B vs Funkmaster J.S Hardboil
TTITLE5=ed Mix]
TTITLE6=Al Jarreau - Random Act Of Love [DJ Spinna Remix-Vocal]
TTITLE7=Innerzone Orchestra - Galaxy
TTITLE8=Monday Michiru - Lovin' You
TTITLE9=Soul II Soul - Time For Change
TTITLE10=Common feat. Mary J. Blige - Come Close [Boozoo Bajou Remix]
TTITLE11=Beady Belle feat. Jamie Cullum - Intermission Music
TTITLE12=Sofa Surfers - Sofa Rockers [Richard Dorfmeister Remix]
TTITLE13=Brian Culbertson - Forbidden Love [Album Version]
EXTD=
EXTT0=
EXTT1=
EXTT2=
EXTT3=
EXTT4=
EXTT5=
EXTT6=
EXTT7=
EXTT8=
EXTT9=
EXTT10=
EXTT11=
EXTT12=
EXTT13=
PLAYORDER=
